<?xml version="1.0" encoding="utf-8"?>
<!-- Generator: Adobe Illustrator 16.0.0, SVG Export Plug-In . SVG Version: 6.00 Build 0)  -->
<!DOCTYPE svg PUBLIC "-//W3C//DTD SVG 1.1//EN" "http://www.w3.org/Graphics/SVG/1.1/DTD/svg11.dtd">
<svg version="1.1" id="Calque_1" xmlns="http://www.w3.org/2000/svg" xmlns:xlink="http://www.w3.org/1999/xlink" x="0px" y="0px"
	 width="432px" height="432px" viewBox="0 0 432 432" enable-background="new 0 0 432 432" xml:space="preserve">
<g>
	<path d="M321.241,216.916c-0.198,0.63-0.31,0.991-0.426,1.351c-0.504,1.557-0.928,3.146-1.533,4.663
		c-0.854,2.137-2.273,3.92-3.739,5.685c-2.047,2.464-6.368,2.133-8.239-0.026c-1.415-1.631-2.375-3.5-3.108-5.501
		c-1.027-2.805-1.421-5.733-1.644-8.692c-0.021-0.276-0.038-0.552-0.076-1.096c-0.262,0.392-0.427,0.571-0.515,0.782
		c-0.631,1.512-1.221,3.042-1.871,4.546c-1.281,2.959-2.919,5.693-5.227,7.981c-1.684,1.67-3.628,2.905-6.003,3.293
		c-4.636,0.758-10.155-0.344-12.985-6.294c-0.24-0.505-0.488-1.008-0.709-1.522c-0.662-1.542-1.288-3.102-1.976-4.633
		c-0.425-0.946-0.897-1.875-1.419-2.771c-0.418-0.719-0.972-1.344-1.931-1.836c-0.025,0.559-0.041,0.974-0.064,1.388
		c-0.221,3.871-0.388,7.745-0.686,11.61c-0.18,2.33-0.951,2.963-3.305,3.013c-0.711,0.015-1.435-0.074-2.136-0.207
		c-1.002-0.189-1.644-0.798-1.763-1.852c-0.22-1.945-0.524-3.887-0.616-5.839c-0.166-3.515-0.21-7.035-0.286-10.553
		c-0.089-4.119-0.156-8.238-0.235-12.357c-0.005-0.197-0.031-0.394-0.051-0.646c-0.546,0.023-0.744,0.466-1.015,0.76
		c-2.356,2.55-4.98,4.739-8.173,6.182c-0.435,0.196-0.864,0.402-1.35,0.627c0,0.649-0.014,1.283,0.002,1.917
		c0.171,7.042-2.092,13.278-6.28,18.862c-2.002,2.67-4.518,4.685-7.86,5.338c-5.125,1.002-9.786,0.08-13.624-3.712
		c-1.211-1.197-2.024-2.669-2.706-4.217c-0.173-0.393-0.353-0.783-0.625-1.387c-0.271,0.652-0.457,1.085-0.634,1.521
		c-0.874,2.147-1.693,4.318-2.633,6.437c-1.107,2.498-2.539,4.809-4.401,6.828c-3.104,3.364-6.884,4.172-11.156,2.813
		c-2.285-0.726-3.869-2.338-4.98-4.435c-1.202-2.27-1.66-4.739-1.931-7.255c-0.485-4.523-0.14-9.028,0.362-13.524
		c0.382-3.416,0.836-6.824,1.249-10.236c0.051-0.42,0.051-0.846,0.075-1.27c-0.082-0.036-0.163-0.071-0.244-0.107
		c-0.266,0.366-0.547,0.722-0.794,1.1c-2.851,4.371-5.145,9.029-7.103,13.855c-3.177,7.828-5.184,15.954-6.082,24.35
		c-0.087,0.813-0.458,1.236-1.162,1.472c-1.461,0.489-2.911,0.432-4.345-0.112c-0.907-0.344-1.4-1.083-1.626-1.956
		c-0.45-1.738-0.912-3.483-1.201-5.252c-0.93-5.698-1.109-11.455-1.216-17.215c-0.07-3.799-0.144-7.598-0.248-11.396
		c-0.032-1.198-0.157-2.394-0.263-3.588c-0.031-0.345-0.141-0.684-0.269-1.282c-0.441,0.546-0.75,0.893-1.021,1.268
		c-2.385,3.298-4.111,6.94-5.564,10.722c-2.773,7.214-4.418,14.686-5.09,22.377c-0.056,0.635-0.026,1.279-0.015,1.918
		c0.013,0.646-0.297,1.06-0.875,1.29c-1.559,0.621-3.121,0.62-4.668-0.031c-0.771-0.324-1.13-1.007-1.311-1.766
		c-0.465-1.942-0.958-3.881-1.321-5.844c-0.871-4.697-1.101-9.446-1.02-14.215c0.006-0.36,0.004-0.72-0.007-1.08
		c-0.001-0.062-0.066-0.122-0.198-0.347c-0.202,0.48-0.379,0.857-0.521,1.248c-1.287,3.53-2.549,7.069-3.855,10.592
		c-1.38,3.721-2.991,7.343-5.254,10.617c-1.131,1.637-2.377,3.228-3.77,4.643c-2.939,2.988-6.589,3.577-10.536,2.618
		c-2.422-0.589-4.154-2.151-5.417-4.261c-0.264-0.441-0.518-0.889-0.848-1.457c-0.234,0.329-0.429,0.56-0.578,0.816
		c-0.541,0.934-1.054,1.885-1.604,2.813c-1.661,2.802-4.661,3.589-7.491,1.958c-1.278-0.736-2.224-1.813-2.971-3.07
		c-1.204-2.025-1.905-4.243-2.22-6.549c-0.409-3.007-0.813-6.031-0.929-9.059c-0.333-8.682-0.027-17.359,0.731-26.01
		c0.346-3.938,0.985-7.851,1.475-11.777c0.163-1.308,0.276-2.623,0.396-3.936c0.024-0.267-0.025-0.541-0.058-1.096
		c-0.427,0.484-0.718,0.78-0.971,1.106c-2.809,3.621-5.052,7.583-7.01,11.711c-3.636,7.663-6.057,15.73-7.888,23.986
		c-1.499,6.762-2.458,13.608-3.066,20.504c-0.035,0.398-0.081,0.801-0.058,1.198c0.048,0.786-0.392,1.189-1.06,1.395
		c-1.221,0.375-2.443,0.354-3.648-0.089c-0.899-0.33-1.454-1.028-1.726-1.884c-0.604-1.901-1.295-3.799-1.641-5.752
		c-0.681-3.854-1.194-7.74-1.696-11.624c-0.655-5.072-0.982-10.19-2.174-15.184c-0.342-1.434-0.728-2.861-1.613-4.292
		c-0.436,0.514-0.843,0.929-1.173,1.397c-1.369,1.944-2.316,4.108-3.165,6.311c-2.354,6.105-4.007,12.403-4.821,18.894
		c-0.195,1.556,0.166,3.18,0.246,4.773c0.071,1.437,0.146,2.875,0.149,4.313c0.003,1.181-0.319,1.569-1.462,1.854
		c-0.536,0.133-1.104,0.189-1.658,0.186c-1.956-0.012-2.758-0.494-3.238-2.357c-0.829-3.208-1.599-6.439-2.213-9.695
		c-1.365-7.231-2.278-14.533-3.058-21.848c-0.263-2.462-0.36-4.944-0.488-7.419c-0.037-0.713,0.069-1.436,0.131-2.152
		c0.069-0.801,0.523-1.324,1.259-1.6c1.046-0.392,2.111-0.395,3.178-0.088c0.861,0.248,1.32,0.904,1.538,1.704
		c0.431,1.579,0.903,3.158,1.173,4.768c0.856,5.125,1.627,10.264,2.434,15.397c0.066,0.423,0.159,0.841,0.444,1.275
		c0.112-0.36,0.227-0.72,0.337-1.082c1.105-3.631,2.173-7.274,3.338-10.886c0.39-1.209,0.968-2.369,1.561-3.499
		c1.486-2.835,3.735-4.117,7.637-3.646c2.716,0.328,4.617,1.851,5.905,4.213c1.296,2.378,2.11,4.938,2.57,7.58
		c0.671,3.856,1.17,7.743,1.74,11.616c0.068,0.465,0.124,0.932,0.186,1.398c0.087,0.011,0.173,0.022,0.26,0.034
		c0.111-0.462,0.23-0.922,0.334-1.386c1.631-7.298,3.422-14.552,6.004-21.586c2.829-7.708,6.727-14.841,11.52-21.502
		c1.392-1.934,2.904-2.339,4.988-1.861c1.247,0.286,2.095,1.088,2.495,2.215c0.477,1.345,0.961,2.754,1.042,4.158
		c0.187,3.229,0.263,6.475,0.149,9.707c-0.378,10.793-0.784,21.585-0.55,32.388c0.089,4.077,0.21,8.157,0.918,12.19
		c0.095,0.537,0.227,1.068,0.381,1.79c0.31-0.294,0.506-0.418,0.618-0.596c1.133-1.79,2.244-3.594,3.38-5.382
		c0.362-0.571,0.24-1.125,0.114-1.727c-1.631-7.771-1.731-15.561-0.085-23.336c0.91-4.294,2.431-8.379,4.926-12.024
		c0.805-1.175,1.785-2.268,2.842-3.225c2.213-2.006,4.893-2.625,7.814-2.188c1.609,0.241,2.926,1.024,3.898,2.354
		c0.814,1.115,1.342,2.362,1.677,3.69c0.596,2.361,0.698,4.737,0.165,7.128c-0.63,2.824-2.143,5.058-4.516,6.695
		c-2.413,1.665-5.126,2.581-7.989,3.096c-0.386,0.069-0.771,0.146-1.125,0.213c-0.054,0.211-0.105,0.326-0.109,0.441
		c-0.218,6.581,0.096,13.122,1.761,19.524c0.397,1.53,1.124,2.981,1.765,4.439c0.198,0.45,0.611,0.805,1.013,1.314
		c0.808-0.533,1.57-0.962,2.251-1.499c1.805-1.422,3.276-3.162,4.593-5.035c2.753-3.917,4.814-8.201,6.637-12.605
		c2.108-5.1,4.004-10.279,5.584-15.57c0.194-0.65,0.439-1.285,0.649-1.931c0.247-0.762,0.789-1.258,1.547-1.334
		c0.942-0.095,1.916-0.127,2.85,0.003c1.072,0.151,1.815,0.893,2.089,1.929c0.376,1.425,0.737,2.87,0.908,4.329
		c0.331,2.818,0.523,5.652,0.774,8.479c0.024,0.271,0.063,0.54,0.106,0.911c0.518-0.306,0.501-0.793,0.619-1.171
		c1.521-4.893,3.22-9.719,5.591-14.273c0.921-1.768,1.984-3.468,3.071-5.142c1.743-2.684,4.462-2.984,6.975-2.306
		c1.453,0.393,2.493,1.369,2.987,2.737c0.607,1.683,1.209,3.415,1.444,5.175c0.541,4.038,0.896,8.103,1.25,12.163
		c0.191,2.189,0.221,4.393,0.333,6.59c0.021,0.429,0.085,0.856,0.129,1.284c0.084,0.021,0.168,0.042,0.251,0.063
		c0.138-0.372,0.281-0.742,0.411-1.117c1.755-5.064,3.688-10.058,5.941-14.923c1.717-3.707,3.715-7.259,5.94-10.685
		c0.239-0.369,0.52-0.712,0.746-1.088c1.133-1.875,2.846-2.298,4.87-1.993c1.357,0.205,2.333,0.918,2.672,2.249
		c0.283,1.115,0.528,2.281,0.52,3.422c-0.025,2.996-0.131,5.995-0.33,8.985c-0.339,5.106-0.876,10.201-0.627,15.332
		c0.111,2.285,0.371,4.543,1.035,6.739c0.361,1.196,0.876,2.322,1.737,3.252c0.787,0.85,1.145,0.959,2.044,0.27
		c0.976-0.749,1.91-1.586,2.716-2.512c1.663-1.91,2.901-4.114,4.064-6.353c2.178-4.194,3.941-8.569,5.573-12.997
		c0.213-0.577,0.234-1.253,0.221-1.88c-0.144-6.587,1.132-12.884,3.875-18.87c1.578-3.443,3.639-6.581,6.359-9.239
		c0.767-0.749,1.629-1.422,2.527-2.009c1.575-1.031,3.354-1.261,5.188-0.988c1.339,0.199,2.399,0.872,3.02,2.116
		c0.354,0.708,0.178,1.06-0.598,1.167c-0.763,0.105-1.522,0.129-2.089-0.57c-0.143-0.177-0.373-0.284-0.673-0.502
		c-0.334,0.369-0.666,0.696-0.952,1.06c-2.022,2.566-3.578,5.402-4.71,8.456c-2.443,6.588-3.723,13.392-3.582,20.434
		c0.048,2.403,0.297,4.793,0.924,7.121c0.269,1,0.594,1.998,1.024,2.937c0.381,0.827,0.866,1.634,1.442,2.336
		c1.971,2.403,4.097,2.752,6.602,0.951c1.183-0.852,2.289-1.907,3.167-3.069c3.878-5.139,5.822-10.97,5.899-17.414
		c0.003-0.309-0.054-0.618-0.089-1c-0.377,0.026-0.684,0.047-0.99,0.07c-2.545,0.191-5.055,0.03-7.392-1.081
		c-0.962-0.458-1.929-1.028-2.692-1.758c-4.861-4.642-1.211-10.477,2.806-11.69c3.587-1.083,7.426,0.071,9.821,3.033
		c1.601,1.979,2.424,4.3,2.947,6.75c0.074,0.347,0.155,0.692,0.265,1.182c0.423-0.186,0.779-0.316,1.111-0.491
		c3.241-1.712,5.739-4.291,8.189-6.947c1.124-1.218,1.62-2.502,1.598-4.188c-0.028-2.108,0.225-4.229,0.475-6.33
		c0.239-2.01,0.979-2.59,3.016-2.635c0.319-0.007,0.64,0.005,0.958,0.028c1.298,0.095,2.234,0.698,2.488,2.02
		c0.338,1.763,0.599,3.542,0.862,5.318c0.134,0.906,0.201,1.822,0.5,2.813c0.176-0.323,0.367-0.638,0.524-0.969
		c1.205-2.538,2.591-4.963,4.414-7.116c1.776-2.098,3.836-3.847,6.308-5.084c1.317-0.659,2.702-0.958,4.179-0.829
		c2.071,0.181,3.303,1.347,3.539,3.405c0.261,2.274-0.139,4.473-0.906,6.599c-2.29,6.34-5.686,11.979-10.694,16.564
		c-1.534,1.404-3.119,2.751-4.679,4.127c-0.296,0.261-0.583,0.533-0.983,0.9c0.328,0.137,0.548,0.279,0.784,0.32
		c3.357,0.581,5.927,2.361,7.684,5.235c1.103,1.804,2.035,3.712,3.011,5.591c0.645,1.241,1.139,2.568,1.87,3.752
		c0.533,0.863,1.301,1.601,2.047,2.308c0.524,0.497,1.242,0.589,1.908,0.244c0.846-0.438,1.713-0.87,2.472-1.437
		c1.325-0.991,2.406-2.253,3.232-3.675c1.363-2.348,2.73-4.706,3.884-7.16c1.495-3.182,2.741-6.479,4.174-9.69
		c0.751-1.683,1.046-3.424,1.11-5.234c0.153-4.316,0.281-8.634,0.488-12.948c0.073-1.511,0.272-3.027,0.555-4.514
		c0.295-1.555,1.03-2.105,2.55-2.199c1.667-0.103,2.807,0.475,3.176,1.924c0.481,1.891,0.833,3.825,1.092,5.76
		c0.846,6.333,0.577,12.695,0.373,19.051c-0.146,4.521-0.27,9.041,0.378,13.533c0.251,1.737,0.659,3.453,1.008,5.175
		c0.046,0.227,0.167,0.438,0.312,0.807c0.339-0.369,0.654-0.617,0.848-0.939c0.904-1.503,1.941-2.957,2.619-4.559
		c1.245-2.942,2.289-5.97,3.368-8.979c0.165-0.459,0.162-1.025,0.083-1.517c-0.566-3.525-0.857-7.067-0.723-10.636
		c0.168-4.425,0.854-8.75,2.605-12.856c0.772-1.812,1.706-3.531,2.962-5.054c2.67-3.237,6.078-4.854,10.307-4.599
		c2.238,0.134,4.063,1.042,5.409,2.89c2.416,3.317,2.592,7.436,0.427,10.922c-1.304,2.099-3.113,3.626-5.309,4.722
		c-2.02,1.008-4.166,1.619-6.375,2.035c-0.384,0.073-0.766,0.157-1.224,0.251c0,1.638-0.057,3.196,0.011,4.748
		c0.229,5.308,1.104,10.496,3.107,15.444c0.479,1.182,1.058,2.332,1.694,3.437c0.477,0.825,1.062,1.606,1.7,2.313
		c2.384,2.638,4.166,3.048,7.494,1.806c3.047-1.137,5.698-2.919,8.01-5.169c5.033-4.9,9.141-10.473,11.979-16.935
		c0.175-0.396,0.315-0.807,0.509-1.307c-0.423-0.302-0.793-0.59-1.186-0.844c-1.949-1.258-3.912-2.492-5.853-3.762
		c-2.323-1.521-4.444-3.285-6.149-5.489c-0.729-0.943-1.397-1.958-1.933-3.021c-1.117-2.221-1.18-4.545-0.296-6.864
		c1.027-2.699,2.763-4.849,5.21-6.399c3.646-2.308,9.387-2.356,12.46,3.171c1.145,2.061,1.659,4.321,2.071,6.606
		c0.724,4.015,0.815,8.028-0.155,12.026c-0.046,0.19-0.044,0.391-0.073,0.669c0.829,0.595,1.673,1.19,2.507,1.799
		c5.124,3.744,8.31,8.782,9.857,14.886c0.748,2.948,0.921,5.945,0.141,8.906c-1.318,4.995-4.33,8.5-9.362,10.028
		c-2.266,0.688-4.581,0.641-6.858-0.058c-1.474-0.453-2.615-1.309-3.353-2.711c-0.77-1.462-1.455-2.935-1.577-4.615
		c-0.111-1.538,0.502-2.724,1.721-3.612c0.898-0.655,1.646-0.646,2.681,0.01c-0.084,0.161-0.146,0.348-0.262,0.49
		c-0.877,1.061-0.954,2.254-0.575,3.509c0.484,1.608,1.331,3,2.668,4.037c0.928,0.719,1.189,0.715,2.12-0.003
		c3.73-2.878,5.7-6.676,5.563-11.397c-0.167-5.72-2.429-10.61-6.307-14.778c-0.189-0.204-0.403-0.387-0.617-0.566
		c-0.051-0.043-0.146-0.034-0.3-0.063c-0.133,0.25-0.29,0.515-0.42,0.792c-2.64,5.648-6.065,10.798-9.966,15.639
		c-2.185,2.711-4.872,4.835-7.934,6.495c-8.409,4.56-19.743,2.052-24.071-8.634C321.884,218.508,321.619,217.85,321.241,216.916z
		 M283.447,179.68c-1.204,0.639-2.151,1.057-3.01,1.612c-2.245,1.454-4.051,3.371-5.557,5.568
		c-2.656,3.877-4.372,8.156-5.352,12.739c-0.074,0.348-0.121,0.712-0.109,1.066c0.046,1.438,0.112,2.876,0.188,4.313
		c0.013,0.25,0.105,0.495,0.2,0.917c0.633-0.625,1.146-1.118,1.644-1.626c4.758-4.863,8.313-10.522,11.003-16.74
		c0.78-1.803,1.342-3.689,1.329-5.682C283.78,181.234,283.6,180.622,283.447,179.68z M364.049,197.288
		c0.068-0.261,0.127-0.445,0.164-0.632c0.638-3.186,0.452-6.362-0.135-9.528c-0.402-2.166-0.936-4.294-1.971-6.262
		c-0.721-1.368-1.682-2.528-2.974-3.388c-1.284-0.854-1.836-0.812-2.983,0.175c-0.151,0.13-0.297,0.268-0.436,0.411
		c-2.158,2.221-3.69,6.724-1.39,10.535c0.656,1.087,1.445,2.113,2.295,3.059c1.965,2.19,4.367,3.853,6.844,5.408
		C363.621,197.163,363.815,197.201,364.049,197.288z M125.425,215.874c3.982-0.26,7.937-3.66,8.977-7.718
		c1.077-4.206-0.105-9.171-2.546-10.682C128.666,199.761,124.641,211.276,125.425,215.874z M328.152,196.523
		c1.226-0.413,2.337-0.729,3.402-1.158c2.256-0.909,4.052-2.387,5.271-4.519c1.735-3.033,1.431-6.632-0.875-9.267
		c-1.435-1.639-1.563-1.687-3.18-0.061c-1.323,1.331-2.072,3.025-2.691,4.768c-1.034,2.917-1.563,5.947-1.923,9.01
		C328.117,195.642,328.152,195.995,328.152,196.523z M245.111,204.456c-0.064-0.553-0.111-1.138-0.202-1.715
		c-0.35-2.218-0.902-4.37-2.102-6.305c-0.66-1.065-1.491-1.96-2.566-2.625c-0.572-0.353-1.108-0.401-1.663,0.006
		c-1.77,1.298-2.755,3.005-2.469,5.232C236.651,203.269,240.943,205.869,245.111,204.456z"/>
	<g>
		<path d="M277.235,122.553c-0.325,1.723-0.638,3.448-0.978,5.168c-1.278,6.478-2.769,12.898-5.25,19.044
			c-1.156,2.863-2.476,5.654-4.369,8.106c-0.944,1.223-2.006,2.418-3.221,3.358c-4.146,3.21-9.985,2.513-13.372-1.484
			c-1.601-1.889-2.686-4.072-3.457-6.401c-0.489-1.476-0.829-3.001-1.234-4.504c-0.093-0.342-0.18-0.686-0.459-1.065
			c-0.113,0.353-0.238,0.702-0.338,1.059c-0.98,3.506-2.032,6.991-3.588,10.292c-0.611,1.296-1.333,2.551-2.117,3.751
			c-1.894,2.899-5.7,2.201-7.177,0.442c-0.737-0.878-1.39-1.859-1.918-2.878c-1.408-2.717-2.187-5.657-2.839-8.632
			c-0.068-0.311-0.151-0.619-0.242-0.924c-0.019-0.059-0.107-0.097-0.219-0.192c-0.14,0.299-0.276,0.579-0.402,0.863
			c-0.778,1.754-1.522,3.524-2.344,5.258c-0.494,1.045-1.062,2.063-1.678,3.042c-2.163,3.438-5.397,4.558-9.284,4.172
			c-3.068-0.305-5.512-1.772-7.48-4.097c-1.702-2.009-2.878-4.316-3.841-6.745c-0.176-0.443-0.354-0.885-0.549-1.372
			c-0.518,0.15-0.493,0.62-0.64,0.942c-0.961,2.108-1.851,4.25-2.863,6.333c-0.504,1.035-1.164,2.008-1.849,2.938
			c-1.755,2.381-4.213,3.169-7.069,2.962c-3.205-0.231-5.433-1.893-6.892-4.695c-1.238-2.377-1.845-4.943-2.167-7.57
			c-0.384-3.133-0.582-6.291-0.999-9.419c-0.272-2.052-0.704-4.094-1.233-6.096c-0.248-0.934-0.84-1.799-1.381-2.627
			c-0.44-0.674-1.165-0.96-1.989-0.871c-3.034,0.328-5.965,1.104-8.846,2.084c-0.064,0.022-0.107,0.109-0.186,0.194
			c0.204,1.101,0.463,2.227,0.616,3.366c0.552,4.091-0.101,8.059-1.413,11.923c-3.279,9.651-9.495,16.688-18.947,20.615
			c-12.542,5.21-27.803,1.511-35.744-12.033c-2.906-4.957-4.695-10.321-5.728-15.947c-1.498-8.163-1.645-16.374-0.769-24.614
			c1.038-9.761,3.306-19.211,7.188-28.249c1.487-3.46,3.162-6.82,5.419-9.859c1.829-2.464,3.94-4.63,6.645-6.144
			c3.335-1.866,6.903-2.529,10.654-1.784c4.314,0.858,7.25,3.545,9.209,7.375c1.497,2.927,1.889,6.105,1.797,9.33
			c-0.149,5.242-1.226,10.306-3.188,15.178c-1.291,3.208-3.286,5.934-5.691,8.38c-0.805,0.819-1.746,0.841-2.824,0.069
			c0.136-0.267,0.248-0.563,0.421-0.817c3.137-4.634,4.747-9.833,5.659-15.288c0.542-3.244,0.838-6.502,0.516-9.794
			c-0.201-2.044-0.644-4.027-1.508-5.897c-1.069-2.313-2.682-4.141-4.89-5.449c-1.299-0.77-2.543-0.779-3.843-0.009
			c-1.362,0.807-2.51,1.844-3.512,3.055c-1.566,1.893-2.763,4.018-3.818,6.222c-3.716,7.759-6.314,15.887-7.95,24.327
			c-1.366,7.049-2.119,14.158-1.897,21.345c0.248,8.042,1.456,15.918,4.292,23.49c1.127,3.01,2.563,5.862,4.497,8.441
			c2.221,2.963,4.952,5.316,8.338,6.868c3.813,1.747,7.738,1.829,11.712,0.688c8.385-2.409,14.478-7.616,18.454-15.326
			c2.404-4.664,3.731-9.604,3.417-14.898c-0.07-1.182-0.293-2.355-0.461-3.654c-0.549,0.116-0.931,0.18-1.303,0.278
			c-2.57,0.678-5.177,1.025-7.836,0.813c-2.229-0.178-4.328-0.776-6.148-2.134c-2.396-1.788-3.412-4.19-2.967-7.138
			c0.378-2.505,1.925-4.131,4.303-4.815c4.317-1.243,8.236-0.421,11.59,2.645c1.886,1.724,3.241,3.843,4.346,6.13
			c0.188,0.39,0.368,0.783,0.587,1.249c1.133-0.347,2.188-0.693,3.256-0.993c1.577-0.441,3.149-0.911,4.748-1.259
			c2.412-0.524,4.839-0.567,7.242,0.106c3.047,0.854,5.184,2.735,6.402,5.666c0.869,2.088,1.318,4.281,1.574,6.507
			c0.369,3.216,0.644,6.444,0.973,9.666c0.211,2.069,0.444,4.137,1.146,6.114c0.182,0.511,0.431,0.998,0.729,1.677
			c0.52-0.573,0.943-0.982,1.298-1.444c1.397-1.821,2.412-3.863,3.333-5.951c1.82-4.125,2.942-8.456,3.595-12.899
			c0.188-1.284,0.018-2.631-0.064-3.944c-0.407-6.51-0.09-12.95,1.799-19.243c0.727-2.424,1.663-4.761,3.091-6.863
			c0.604-0.889,1.261-1.763,2.015-2.525c3.03-3.063,7.636-3.298,10.999-0.596c0.558,0.449,1.101,0.941,1.553,1.493
			c2.13,2.593,3.394,5.583,3.937,8.884c0.351,2.125-0.464,3.752-2.184,4.965c-1.645,1.16-3.548,1.642-5.487,1.96
			c-1.971,0.323-3.958,0.543-5.938,0.807c-0.394,0.053-0.787,0.101-1.285,0.165c-0.028,0.457-0.067,0.883-0.08,1.311
			c-0.127,4.166,0.098,8.317,0.571,12.454c0.445,3.895,1.037,7.767,2.105,11.549c0.653,2.313,1.399,4.601,2.679,6.653
			c0.565,0.907,1.304,1.708,1.987,2.537c0.405,0.491,0.891,0.485,1.359,0.074c0.6-0.526,1.278-0.997,1.757-1.62
			c1.095-1.422,2.21-2.852,3.098-4.403c2.128-3.719,3.835-7.646,5.299-11.671c0.239-0.658,0.318-1.404,0.325-2.111
			c0.046-5.001,0.821-9.872,2.53-14.582c0.946-2.607,2.132-5.106,3.874-7.275c0.942-1.175,2.006-2.301,3.191-3.222
			c2.458-1.91,5.311-2.357,8.298-1.606c2.676,0.672,4.257,2.649,5.567,4.906c-0.988,0.751-1.663,0.74-2.489-0.029
			c-1.125-1.048-2.423-1.816-3.797-2.485c-0.718-0.35-1.26-0.222-1.824,0.316c-1.534,1.46-2.611,3.229-3.527,5.104
			c-1.715,3.51-2.725,7.253-3.538,11.052c-1.885,8.792-1.613,17.557,0.42,26.287c0.268,1.152,0.537,2.324,1.337,3.484
			c0.482-0.557,0.983-0.974,1.278-1.506c0.948-1.708,1.952-3.405,2.698-5.204c2.157-5.202,3.336-10.67,4.09-16.233
			c0.364-2.693,0.664-5.396,0.991-8.094c0.123-1.011,0.395-1.337,1.386-1.497c0.469-0.075,0.96-0.078,1.435-0.04
			c1.369,0.109,1.991,0.592,2.164,1.953c0.287,2.259,0.483,4.531,0.653,6.802c0.379,5.041,1.159,10.011,2.712,14.828
			c0.536,1.665,1.27,3.277,2.041,4.851c0.358,0.731,0.984,1.349,1.56,1.95c0.546,0.569,1.254,0.719,1.975,0.317
			c0.799-0.445,1.624-0.871,2.343-1.427c1.501-1.163,2.648-2.658,3.682-4.239c2.49-3.81,4.234-7.971,5.712-12.251
			c2.654-7.693,4.424-15.604,5.762-23.619c0.033-0.197,0.047-0.399,0.094-0.592c0.654-2.68,0.497-5.396,0.354-8.111
			c-0.01-0.189-0.094-0.374-0.161-0.627c-1.142,0.098-2.25,0.209-3.36,0.285c-1.636,0.112-3.271,0.235-4.909,0.284
			c-0.794,0.023-1.599-0.073-2.387-0.191c-0.502-0.075-1.028-0.215-1.303-0.771c0.132-0.63,0.653-0.769,1.159-0.855
			c1.457-0.247,2.915-0.498,4.383-0.667c1.865-0.216,3.74-0.352,5.61-0.531c0.23-0.022,0.455-0.101,0.773-0.175
			c0-0.498,0.005-0.97-0.001-1.442c-0.066-5.158-0.216-10.317-0.178-15.475c0.033-4.517,0.226-9.036,0.847-13.521
			c0.264-1.907,0.87-2.475,2.783-2.622c0.395-0.03,0.801-0.004,1.193,0.056c1.705,0.262,2.297,0.729,2.471,2.417
			c0.376,3.656,0.723,7.32,0.911,10.99c0.31,6.03,0.482,12.067,0.717,18.102c0.013,0.314,0.059,0.628,0.094,0.992
			c0.22,0.036,0.41,0.099,0.598,0.092c3.396-0.124,6.791-0.265,10.188-0.379c0.741-0.025,1.54-0.137,2.056,0.623
			c-0.08,0.636-0.547,0.912-1.042,1.05c-0.764,0.214-1.551,0.407-2.338,0.464c-2.872,0.208-5.747,0.355-8.621,0.528
			c-0.192,0.012-0.384,0.053-0.701,0.099c0,0.42-0.019,0.806,0.003,1.189c0.47,8.505,0.954,17.009,1.413,25.515
			c0.204,3.793,0.319,7.592,0.549,11.384c0.344,5.706,0.753,11.408,1.134,17.112c0.062,0.918,0.15,1.835,0.172,2.754
			c0.02,0.834-0.217,1.161-1.003,1.43c-1.224,0.419-2.439,0.331-3.632-0.153c-0.708-0.288-1.009-0.891-1.147-1.58
			c-0.313-1.567-0.62-3.136-0.892-4.71c-0.937-5.435-1.94-10.861-2.756-16.314c-0.597-3.989-0.988-8.012-1.376-12.028
			c-0.276-2.861-0.394-5.738-0.582-8.608C277.381,122.545,277.308,122.549,277.235,122.553z M211.577,105.656
			c-2.458,2.412-5.22,12.033-4.561,15.841c2.286-0.279,4.576-0.558,6.788-1.25c2.991-0.938,4.223-2.99,3.665-6.071
			c-0.422-2.33-1.403-4.41-2.968-6.195C213.683,107.046,212.771,106.215,211.577,105.656z M160.682,132.048
			c-0.042-0.273-0.038-0.438-0.093-0.58c-1.084-2.839-2.644-5.364-4.949-7.383c-1.001-0.876-2.127-1.532-3.429-1.888
			c-1.406-0.384-2.601-0.026-3.647,0.926c-0.901,0.818-1.34,1.872-1.453,3.064c-0.326,3.438,2.096,6.486,5.747,7.088
			C155.579,133.724,158.124,132.888,160.682,132.048z"/>
		<path d="M301.865,128.593c-0.096,1.069-0.209,2.056-0.27,3.046c-0.332,5.411-0.238,10.803,1.099,16.09
			c0.419,1.652,1.04,3.279,1.784,4.814c0.455,0.938,1.267,1.728,2.016,2.489c0.673,0.683,1.522,0.759,2.437,0.367
			c1.195-0.511,2.28-1.194,3.17-2.121c0.938-0.977,1.872-1.987,2.624-3.106c2.355-3.504,4.159-7.283,5.331-11.352
			c0.166-0.574,0.356-1.149,0.61-1.688c0.485-1.027,1.71-1.396,2.742-0.906c0.418,0.199,0.443,0.51,0.396,0.892
			c-0.254,2.062-0.487,4.119-1.206,6.098c-1.039,2.861-2.202,5.661-3.642,8.346c-3.642,6.797-10.827,8.073-16.455,6.12
			c-2.393-0.831-4.215-2.4-5.538-4.557c-1.532-2.498-2.38-5.249-2.814-8.107c-1.358-8.935-0.596-17.707,2.367-26.25
			c0.559-1.609,1.345-3.176,2.251-4.62c1.987-3.167,4.885-4.609,8.661-4.105c1.577,0.21,2.926,0.879,3.891,2.143
			c2.377,3.116,3.28,6.632,2.577,10.501c-0.339,1.866-1.48,3.148-3.239,3.877c-2.533,1.05-5.196,1.564-7.897,1.923
			C302.524,128.517,302.288,128.543,301.865,128.593z M302.1,126.494c1.676-0.165,3.07-0.595,4.462-1.061
			c1.724-0.577,2.73-1.79,3.06-3.527c0.572-3.02-0.087-5.794-1.878-8.285c-0.284-0.396-0.702-0.694-1.167-1.141
			C303.465,116.725,302.926,121.561,302.1,126.494z"/>
	</g>
	<path d="M303.989,173.652c-1.274,0.04-2.603-0.2-3.836-0.843c-1.558-0.812-2.201-1.997-1.993-3.605
		c0.213-1.64,1.334-2.875,2.99-3.174c1.23-0.222,2.461-0.242,3.633,0.358c0.348,0.178,0.777,0.188,1.141,0.343
		c0.873,0.374,1.838,0.647,2.57,1.214c1.733,1.341,1.571,3.517-0.262,4.711C306.979,173.473,305.56,173.671,303.989,173.652z"/>
	<g>
		<path d="M295.8,347.635c-0.101-2.1-0.2-4.1-0.2-5.7c0-4.3,0-8.6,0-12.9c0-5.4,0-10.8,0-16.1c0-3.1,0-6.3,0-9.4c0-1.9,0-3.9,0-5.8
			c0-5,0-10-0.101-15c-0.1-5.4-1.3-11-7.6-11.3c0,0,0,0-0.1,0c0,0-0.101,0-0.2,0c-1.2,0-2.3,0-3.5,0c0.8-1.5-0.101-4.5-0.2-6
			c0,0,0-0.1-0.1-0.1H283.7h-0.1c-0.101,0-0.2,0-0.2,0c-4.4,0-8.8,0.1-13.2,0c-1.1,0-3.7-0.5-4.6,0.5c-0.9,0.9-0.5,3.1-0.5,4.3
			c0,0.6,0,1,0.1,1.4c-27,0.2-54.1,0.4-81.1-0.3c0.2-0.4,0.1-1,0.1-1.7c1.7-0.7,1.5-1.8,1.4-4c0-0.1,0-0.1,0-0.2
			c0-0.1-0.101-0.2-0.4-0.3h-0.1c-0.101,0-0.2,0-0.3,0c-2,0-4,0-6,0.1c-0.7-5.3-12.2-5.5-13.2-0.3c-2-0.1-3.9-0.1-5.9,0.2
			c-0.3,0.1-0.899,0.2-1,0.6c-0.3,1.5-0.7,3.9,1.101,4.3c0.1,0,0.199,0,0.3,0.1c-0.5,0.3-0.8,0.8-0.8,1.2c-0.5,0.1-0.9,0.1-1.4,0.2
			c-4,0.7-6.3,3.6-7.1,7.5c-1,4.5-0.2,9.2-0.101,13.8c0,1.5,0,3.1,0,4.6c0,0.1,0,0.1,0,0.2c0,6.9,0,13.8,0,20.7c0,0.2,0,0.3,0,0.5
			c0,0.2,0,0.4,0,0.6c0,0.5,0,1,0,1.5c0,3.9,0,7.8,0,11.6c0,0.9,0,1.8,0,2.7c0,2.3-0.1,4.7-0.2,7c0,0.5,0,1-0.1,1.4
			c-0.1,1.6-0.3,3.6-0.3,5.6c-0.101,4.1,0.3,8.4,3.3,10.7c3.8,3,10.5,1.9,15,1.9c8.7,0,17.5,0,26.2,0c17.8,0,35.6-0.1,53.399,0
			c8.7,0.1,17.4,0.3,26.101,0.3c4.2,0,8.399,0,12.5-0.3c2.1-0.2,4.3-0.7,5.899-2.2C295.6,356.735,295.9,352.035,295.8,347.635z
			 M267,265.635c0.2-0.2,2,0.2,2.4,0.2c1.5,0,2.9,0,4.4,0c2.8,0,5.699,0,8.5,0c0.1,1.5,0.3,2.9,0.3,4.4c0,0.5-0.101,0.8-0.101,1
			c-5.1,0-10.3,0-15.399,0.1c-0.101-0.3-0.2-0.7-0.2-1.3C266.9,269.335,266.5,266.035,267,265.635z M183.9,268.335
			c-0.1,0.1-0.2,0.2-0.4,0.3c-0.399,0-0.8,0-1.199,0c0,0,0,0,0-0.1c0-0.9,0-1.7,0-2.6c0.6,0,1.199,0,1.699,0
			C184,266.735,184.2,267.935,183.9,268.335z M162.2,269.835c0.5-0.1,1-0.1,1.5-0.2c2.7-0.1,5.4,0,8.101,0
			c3.399,0,7.199,0.8,10.699,0.1c0,0.4,0,0.9,0,1.2c-0.5,0-1,0-1.5,0c-6.399-0.2-13.3-0.7-19.8-0.1
			C161.1,270.335,161.6,270.035,162.2,269.835z M167.5,265.835c0.301,0,0.5,0,0.801,0c0,0,0,0,0,0.1c0.1,0.8,0.1,1.6,0,2.4
			c-0.301,0-0.5,0-0.801,0v-0.1C167.5,267.535,167.5,266.635,167.5,265.835z M175.3,268.435c-0.301,0-0.5,0-0.801,0v-0.1
			c0-0.8,0-1.5,0.101-2.3c0.3,0,0.6,0,0.899,0l0,0C175.5,266.835,175.4,267.635,175.3,268.435z M172.8,268.435c-0.2,0-0.5,0-0.7,0
			v-0.1c0.1-0.8,0.1-1.5,0.2-2.3c0.199,0,0.399,0,0.6,0C172.9,266.835,172.8,267.635,172.8,268.435z M170.4,268.435
			c-0.2,0-0.3,0-0.5,0c0,0,0,0,0-0.1c0.2-0.8,0.2-1.6,0.1-2.4c0.2,0,0.4,0,0.601,0C170.6,266.735,170.5,267.535,170.4,268.435
			L170.4,268.435z M179.8,265.935c0.199,0,0.5,0,0.699,0l0,0c0,0.9,0,1.8,0,2.6c-0.3,0-0.6,0-0.899,0v-0.1
			C179.6,267.635,179.7,266.835,179.8,265.935z M178.2,265.935c-0.2,0.8-0.2,1.7-0.2,2.6c-0.3,0-0.699,0-1,0l0,0
			c0.101-0.8,0.101-1.7,0.2-2.5C177.5,265.935,177.8,265.935,178.2,265.935z M177,264.935c-2.699,0-5.5,0-8.199-0.1
			c-0.5,0-1-0.1-1.5-0.1C167.8,260.635,175.9,261.235,177,264.935z M165.8,265.735v0.1c0,0.9,0,1.7,0,2.6c-0.2,0-0.4,0-0.601,0
			c0-0.9,0.101-1.8,0.101-2.8C165.5,265.735,165.7,265.735,165.8,265.735z M163.6,265.635c0,1-0.101,2-0.101,3
			c-0.199,0-0.399,0-0.6,0c0,0,0,0-0.1,0l0,0c0-1,0-2,0-3C163.1,265.635,163.4,265.635,163.6,265.635z M160.4,265.835
			c0.3,0,0.5-0.1,0.8-0.1c0,1,0,2,0,3.1c-0.5-0.1-0.8-0.4-0.8-1.4C160.3,266.935,160.3,266.335,160.4,265.835z M293.1,355.735
			c-1,3-3.2,4.2-6.3,4.5c-4,0.4-8,0.3-12,0.3c-8.101,0.1-16.2-0.2-24.301-0.3c-15.899-0.2-31.699,0-47.6,0c-7.7,0-15.4,0-23.1,0
			c-3.801,0-7.5,0-11.301,0c-3.199,0-6.5,0.3-9.699-0.1c-5.4-0.7-6.601-5-6.801-9.6c3.601,1.3,7.801,1.5,11.5,1.5
			c15.101,0,30.2,0,45.301,0c7,3.7,15.3,5,23.1,3.8c4.1-0.6,8.1-1.9,11.7-3.8c4.3,0,8.5,0,12.8,0c7.6,0,15.2,0,22.9,0
			c4.5,0,9.1-0.1,13.5-1.4c0.399-0.1,0.699-0.3,1-0.4C293.8,352.135,293.7,354.035,293.1,355.735z M200.4,304.835
			c1.9-2.7,4.1-5,6.7-6.9c0.6-0.4,1.2-0.9,1.8-1.3c7.1-4.7,16-6.6,24.4-5.2c4.5,0.8,8.899,2.5,12.6,5.2c0.6,0.4,1.1,0.8,1.6,1.3
			c1.2,1,2.301,2.1,3.301,3.3c5.399,6.4,7.5,14.8,7.5,23.1c-0.101,11.3-5.4,21.1-14.601,26.5c-0.8,0.5-1.6,0.9-2.399,1.3
			c-1.7,0.8-3.5,1.5-5.5,2c-7.801,2.1-16.5,1.4-23.9-2c-0.9-0.4-1.7-0.8-2.5-1.3c-3-1.7-5.7-3.9-8-6.7
			C192.4,333.335,192.4,316.235,200.4,304.835z M293.9,296.435c-1.7-0.2-3.5,0.1-5.2,0.2c-3.3,0.2-6.7,0.1-10.1,0.1
			c-7.601,0-15.3,0-22.9,0c-2.5,0-5,0-7.5,0c-2.899-2.4-6.3-4.2-10.3-5.4c-10.4-3-22.2-0.9-31.1,5.4c-18.101,0-36.2,0-54.301,0
			c-0.1-4.2-0.3-8.3-0.3-12.5c0-4.3,0.4-10.3,5.5-11.5c0.8-0.2,1.7-0.3,2.601-0.4c1-0.1,2-0.2,3-0.2s1.899,0,2.8,0
			c0.899,0,1.7,0,2.5,0c3.7,0,7.399,0,11.1,0.2c0.7,0,1.4,0,2.101,0.1c28.1,0.8,56.3,0.5,84.5,0.3c3.3,0,6.6,0,9.899,0
			c3.7,0,7.4,0,11.101,0c7.8,0.4,6.399,10.4,6.399,15.9C293.9,291.035,293.9,293.735,293.9,296.435z"/>
		<path d="M187.7,278.635c-0.1-0.1-0.2-0.2-0.2-0.3l-0.1-0.1c-0.1-0.1-0.1-0.1-0.2-0.2l-0.1-0.1c-0.101,0-0.101-0.1-0.2-0.1
			l-0.1-0.1c-0.101,0-0.101-0.1-0.2-0.1c-0.101,0-0.101,0-0.2-0.1c-0.1,0-0.1,0-0.2-0.1c-0.1,0-0.1,0-0.2,0c-0.1,0-0.1,0-0.199,0
			c-0.101,0-0.101,0-0.2,0c-0.101,0-0.101,0-0.2,0s-0.1,0-0.2,0c-0.1,0-0.1,0-0.2,0c0,0,0,0-0.1,0c0,0,0,0-0.1,0c-0.2,0-0.5,0-0.7,0
			H184c-0.199,0-0.5,0-0.699,0.1c-0.301,0-0.5,0.1-0.7,0.1l0,0c-0.2,0-0.5,0-0.7,0l0,0c-1.2,0-2.4,0-3.6,0c-1.101,0-2.101,0-3.2,0
			c-0.2,0-0.4,0-0.601,0c-0.399,0-0.699,0-1.1,0c-0.3,0-0.6,0-0.9,0c-0.399,0-0.8,0-1.199,0c-0.301,0-0.601,0-0.801,0
			c-0.399,0-0.899,0-1.3-0.1c-0.2,0-0.5,0-0.7,0c-0.699,0-1.3-0.1-2-0.1c-0.1,0-0.199,0-0.3,0h-0.1c-0.101,0-0.2,0-0.2,0
			c-0.1,0-0.3,0-0.4,0c-0.1,0-0.1,0-0.199,0c-0.101,0-0.2,0-0.301,0c-0.1,0-0.1,0-0.199,0c-0.101,0-0.2,0-0.301,0
			c-0.1,0-0.1,0-0.199,0c-0.101,0-0.2,0-0.301,0c-0.1,0-0.1,0-0.199,0c-0.101,0-0.2,0-0.2,0c-0.101,0-0.101,0-0.2,0s-0.2,0-0.2,0
			l0,0c-0.1,0-0.1,0-0.2,0c-0.1,0-0.1,0-0.199,0c-0.101,0-0.2,0-0.2,0c-0.101,0-0.101,0-0.2,0s-0.1,0-0.2,0c-0.1,0-0.1,0-0.2,0
			c-0.1,0-0.1,0-0.199,0c-0.101,0-0.101,0-0.2,0c-0.101,0-0.101,0-0.2,0.1c-0.1,0-0.1,0-0.2,0.1c-0.1,0-0.1,0.1-0.2,0.1
			c0,0-0.1,0-0.1,0.1c-0.1,0-0.1,0.1-0.2,0.1c0,0-0.1,0-0.1,0.1c-0.101,0.1-0.2,0.2-0.3,0.2c-0.2,0.2-0.301,0.4-0.4,0.7
			c-0.3,0.7-0.4,1.7-0.4,2.7c0,0.3,0,0.7,0.101,1c0.1,0.7,0.1,1.3,0.2,1.9c0,0.3,0.1,0.5,0.1,0.8c0.101,1.4,0.2,2.7,0.3,4.1
			c0.101,0.8-0.1,2.2,0.5,2.9c0.4,0.5,0.9,0.5,1.5,0.6c0.301,0,0.601,0.1,0.9,0.1c0.1,0,0.2,0,0.3,0c0.2,0,0.4,0,0.601,0h0.1
			c0.1,0,0.1,0,0.2,0c0.3,0,0.6,0,0.899,0c0.101,0,0.2,0,0.301,0c0.399,0,0.8,0,1.199-0.1c0.301,0,0.601,0,0.9,0c0.1,0,0.2,0,0.3,0
			c0.4,0,0.7,0,1.101,0c6.1,0,12.1,0,18.199,0l0,0c0,0,0,0,0.101,0l0,0c0.2,0,0.3,0,0.399-0.1c0.2-0.1,0.4-0.3,0.4-0.6
			C188.1,287.935,189.7,282.035,187.7,278.635L187.7,278.635z M186.3,291.135c-3.9,0-7.7,0-11.601,0c-2.3,0-4.5,0-6.8,0
			c-0.2,0-0.5,0-0.8,0c-0.101,0-0.2,0-0.2,0c-0.2,0-0.4,0-0.6,0c-0.301,0-0.601,0-0.801,0c-0.1,0-0.1,0-0.199,0
			c-0.2,0-0.4,0-0.601,0c-0.1,0-0.2,0-0.2,0c-0.199,0-0.3,0-0.5,0c-0.1,0-0.1,0-0.199,0c-0.2,0-0.4,0-0.7-0.1
			c-1.5-0.2-1.2-1.2-1.3-2.6c-0.101-0.8-0.101-1.7-0.2-2.5c-0.101-1.8-0.9-5.3-0.101-6.9c0-0.1,0.101-0.2,0.2-0.2c0,0,0,0,0.101-0.1
			c0,0,0.1-0.1,0.199-0.1c0,0,0.101,0,0.101-0.1c0.1,0,0.1-0.1,0.2-0.1h0.1c0.1,0,0.2-0.1,0.3-0.1h0.101c0.1,0,0.199,0,0.399-0.1
			h0.101c0.1,0,0.199,0,0.3,0h0.1c0.101,0,0.2,0,0.3,0c0.101,0,0.2,0,0.301,0c0.1,0,0.1,0,0.199,0c0.101,0,0.301,0,0.4,0h0.1
			c0.2,0,0.4,0,0.5,0.1c0.101,0,0.101,0,0.2,0c0.101,0,0.3,0,0.4,0.1c0.1,0,0.2,0,0.2,0c0.1,0,0.199,0,0.3,0c0.1,0,0.3,0,0.399,0.1
			c0.101,0,0.101,0,0.2,0c0.101,0,0.2,0,0.3,0h0.101c0.1,0,0.3,0,0.399,0c0.601,0,1.2,0.1,1.801,0.1c0.1,0,0.199,0,0.3,0
			c0.6,0,1.2,0,1.8,0h0.1c0.101,0,0.101,0,0.2,0c0.9,0,1.8,0,2.601,0c1,0,1.899,0,2.8,0l0,0c0.6,0,1.3,0,2,0c0.399,0,0.899,0,1.3,0
			c0.1,0,0.3,0,0.4,0c0.199,0,0.3,0,0.5,0c0.199,0,0.3,0,0.5,0c0.5,0,0.899,0,1.399,0c0.101,0,0.2,0,0.4,0h0.1c0.101,0,0.2,0,0.2,0
			h0.1c0.101,0,0.2,0,0.301,0c0,0,0,0,0.1,0s0.2,0,0.3,0l0,0c0.101,0,0.2,0,0.3,0.1l0,0c0.101,0,0.101,0.1,0.2,0.1l0,0
			c0.101,0.1,0.101,0.1,0.2,0.2l0,0c0.1,0.1,0.1,0.2,0.2,0.3c0,0,0,0,0,0.1c0.1,0.1,0.1,0.2,0.2,0.3v0.1c0.1,0.1,0.1,0.3,0.199,0.4
			l0,0C187.4,283.735,186.5,287.735,186.3,291.135z"/>
		<path d="M184.9,280.135c0,0-0.2,0-0.4,0l0,0c-0.199,0-0.399,0-0.699,0c-0.7,0-1.5,0-2.4,0c-0.6,0-1.2,0-1.8,0
			c-0.601,0-1.2,0-1.8,0c-0.9,0-1.9,0-2.801,0c-0.899,0-1.899,0-2.899,0c-1.601,0-2.9,0-4.101-0.1c-0.399,0-0.899-0.1-1.399-0.2
			c-0.9-0.1-1.9-0.3-2.7-0.3c-0.7,0-1,0.1-1.1,0.1c-0.4,1-0.101,3.2,0.1,4.6c0.1,0.6,0.1,1.1,0.2,1.6c0,0.4,0.1,0.7,0.1,1.1
			c0,0.5,0.101,0.9,0.101,1.4c0,0.2,0,0.5,0,0.7s0,0.5,0,0.6h0.1c0.3,0.1,0.7,0.1,1.2,0.1s1.1,0,1.7-0.1c0.6,0,1.199-0.1,1.699-0.1
			h6.801H185.2c0-0.5,0.101-1.1,0.2-1.6c0.3-2.5,0.5-5.1-0.1-7.2C185,280.435,184.9,280.235,184.9,280.135z"/>
		<path d="M279.5,277.735c-3.699,0-7.399,0.1-11.1-0.1c-1.3-0.1-4.2-0.5-5.3,0.6c-1.2,1.2-0.5,4.6-0.4,6c0.101,1.3,0.2,2.5,0.3,3.8
			c0,0.8-0.399,2.5,0,3.2c0.801,1.6,5.601,1.2,7,1.3c5.101,0.2,10.2-0.4,15.301-0.4c0,0,0,0,0.1,0c0.5,0,1.4-0.2,1.4-0.6
			c0-2.6,0-5.2,0-7.8c0-1.2,0.6-3.8,0-4.9C285.7,277.035,281,277.635,279.5,277.735z"/>
		<path d="M208.9,344.035c10.1,8.7,23.8,8.7,34.1,0.5c9.4-7.8,14.601-19.8,9.2-31.5c-3.2-7-9.3-12.5-16.5-15.1
			c-1.5-0.6-3.1-1-4.7-1.3c-1.399-0.3-2.899-0.4-4.399-0.4c-1.7,0-3.4,0.1-5.101,0.4c-1.6,0.3-3.1,0.7-4.699,1.3
			c-7.801,2.9-14.5,9.1-17.2,16.9C196.2,325.335,200.8,337.035,208.9,344.035z"/>
	</g>
	<g>
		<path fill="#CC7B26" d="M339.3,267.935c-0.9-1-8,4.2-16.5,10.8c-8.5,6.6-15.2,12.2-14.5,13.3c0.699,1.1,8.8-2.8,17.5-9.6
			C334.5,275.835,340.2,268.935,339.3,267.935z"/>
		
			<ellipse transform="matrix(-0.9926 -0.1213 0.1213 -0.9926 610.6841 660.6542)" fill="#CC7B26" cx="325.452" cy="311.739" rx="16.3" ry="2.4"/>
		<path fill="#CC7B26" d="M330.8,340.135c-10.7-9.1-19.101-16.9-20.101-16c-1,0.9,6.101,10.3,17,19.6c10.9,9.4,21.3,14.9,22,13.8
			S341.5,349.235,330.8,340.135z"/>
		<path fill="#CC7B26" d="M107.1,266.835c-1,0.9,3.899,8,11,15.8c7.1,7.9,13.6,13.5,14.6,12.6c1-0.9-3.899-8-11-15.8
			C114.7,271.635,108.1,265.935,107.1,266.835z"/>
		<path fill="#CC7B26" d="M112.8,303.335c-10.7-1.3-19.5-0.6-19.601,0.7c-0.1,1.3,8.5,2.8,19,4.1c10.5,1.3,19.2,1.9,19.4,0.6
			C131.9,307.335,123.6,304.635,112.8,303.335z"/>
		<path fill="#CC7B26" d="M106.7,330.435c-13,4.1-22.899,9.1-22.399,10.3c0.5,1.3,11-1.7,23.899-5.7c12.8-4.1,23.101-7.8,22.8-9.1
			C130.6,324.635,119.7,326.335,106.7,330.435z"/>
	</g>
</g>
</svg>
